<svg width="81" height="55" viewBox="0 0 81 55" fill="none" xmlns="http://www.w3.org/2000/svg">
<path fill-rule="evenodd" clip-rule="evenodd" d="M6.70164 28.0299V5.70115C6.70164 5.1047 6.91032 4.54633 7.32768 4.02602C7.73915 3.49937 8.23292 3.12501 8.80899 2.90293V2.68401H7.11606C6.49884 2.68401 5.7523 2.84581 4.87644 3.16942L4.32095 0H15.4044C17.7087 0 19.4369 1.16751 20.589 3.50254C21.7353 5.83758 22.3084 9.27985 22.3084 13.8294C22.3084 23.2964 19.8807 28.0299 15.0252 28.0299H6.70164ZM9.76127 54.1658V41.0598C9.76127 40.3999 9.55259 39.8574 9.13524 39.4322C8.712 39.0135 8.18884 38.8041 7.56574 38.8041C6.94265 38.8041 6.44593 39.0135 6.0756 39.4322C5.70527 39.8574 5.52012 40.3999 5.52012 41.0598V54.1658H1.20842V38.7279C1.20842 38.2203 1.16433 37.7952 1.07616 37.4525C0.993864 37.1099 0.893932 36.7863 0.776367 36.4817H5.4143L5.52012 38.6137L6.66637 37.0909C6.97792 36.6848 7.28947 36.4817 7.60101 36.4817H11.4895C12.3242 36.4817 12.9767 36.7228 13.4469 37.2051C13.9113 37.6873 14.1435 38.3091 14.1435 39.0706V54.1658H9.76127ZM43.3114 54.1658V38.7279C43.3114 38.1442 43.1673 37.3954 42.8793 36.4817H47.7994V54.1658H43.3114ZM48.205 31.4182C48.205 32.1543 47.9405 32.7571 47.4114 33.2266C46.8824 33.6962 46.2711 33.931 45.5774 33.931C44.8838 33.931 44.2666 33.6962 43.7258 33.2266C43.185 32.7571 42.9146 32.1543 42.9146 31.4182C42.9146 30.733 43.185 30.1524 43.7258 29.6765C44.2666 29.207 44.8838 28.9722 45.5774 28.9722C46.2711 28.9722 46.8824 29.207 47.4114 29.6765C47.9405 30.1524 48.205 30.733 48.205 31.4182ZM50.6121 54.1658V38.6899C50.6121 37.9792 50.4564 37.2432 50.1448 36.4817H54.818L54.9591 38.5376L56.3258 37.2051C56.7608 36.7228 57.2781 36.4817 57.8776 36.4817H59.5618C60.0673 36.4817 60.4523 36.5896 60.7168 36.8053C60.9814 37.0211 61.1371 37.2685 61.1842 37.5477L58.9534 41.0217C58.7829 39.8225 58.1128 39.2228 56.943 39.2228C56.3669 39.2228 55.8937 39.4196 55.5234 39.813C55.1472 40.2127 54.9591 40.7298 54.9591 41.3643V54.1658H50.6121ZM67.7619 54.1658C66.6392 54.1658 65.6751 53.9501 64.8698 53.5186C64.0704 53.0871 63.4179 52.4716 62.9124 51.6721C62.4068 50.8726 62.0336 49.8986 61.7926 48.7502C61.5574 47.608 61.4399 46.339 61.4399 44.943C61.4399 43.2425 61.5839 41.8212 61.8719 40.6791C62.16 39.5306 62.6038 38.6264 63.2033 37.9665C63.797 37.3066 64.5377 36.837 65.4253 36.5579C66.3129 36.2787 67.3563 36.1391 68.5555 36.1391C69.6371 36.1391 70.5776 36.2914 71.377 36.5959C72.1824 36.9005 72.8525 37.3954 73.3874 38.0807C73.9282 38.766 74.3309 39.6765 74.5954 40.8123C74.8599 41.9418 74.9922 43.3187 74.9922 44.943H65.8221C65.8456 46.2375 65.9073 47.3606 66.0073 48.3123C66.1013 49.2705 66.2924 50.0541 66.5804 50.6632C66.8684 51.2724 67.2946 51.7229 67.8589 52.0148C68.4174 52.3066 69.1903 52.4526 70.1779 52.4526C70.848 52.4526 71.9737 52.3384 73.5549 52.1099L73.9164 54.1658H67.7619ZM70.5306 42.6588C70.5306 42.1004 70.5041 41.5357 70.4512 40.9646C70.4042 40.3935 70.2925 39.8764 70.1162 39.4132C69.9339 38.9563 69.6812 38.582 69.3579 38.2901C69.0346 37.9982 68.6084 37.8523 68.0794 37.8523C67.3152 37.8523 66.7479 38.2711 66.3776 39.1086C66.0014 39.9525 65.8133 41.1359 65.8133 42.6588H70.5306ZM36.0547 54.1658V40.9836H28.7098V54.1658H24.2482C24.2482 39.7844 24.4334 26.5261 24.4334 12.8966C24.4334 12.1986 24.2835 11.4785 23.9837 10.7361H28.4717L28.604 12.7443L29.9178 11.4404C30.3351 10.9708 30.8318 10.7361 31.4079 10.7361H33.0303C33.5123 10.7361 33.8797 10.8408 34.1325 11.0502C34.3852 11.2596 34.5351 11.5007 34.5822 11.7735L32.4395 15.1714C32.2808 14.0038 31.6372 13.4201 30.5085 13.4201C29.956 13.4201 29.5004 13.6105 29.1418 13.9912C28.7833 14.3782 28.604 14.8827 28.604 15.5045C28.604 23.1187 28.7098 30.476 28.7098 38.1188H36.0547V29.0769C36.0547 27.002 36.2046 24.9461 36.2046 22.8998V12.8395C36.2046 12.2684 35.9929 11.6307 35.7196 10.7361H40.4545C40.4545 25.2222 40.481 39.6607 40.481 54.1658H36.0547ZM13.9319 25.0794C14.5726 25.0794 15.1369 24.8827 15.6248 24.4893C16.1068 24.0896 16.5095 23.4423 16.8328 22.5477C17.1502 21.653 17.3912 20.4918 17.5558 19.0642C17.7145 17.6365 17.7939 15.8915 17.7939 13.8294C17.7939 11.7164 17.6851 9.93975 17.4677 8.49939C17.2502 7.05903 16.9269 5.90738 16.4977 5.04443C16.0745 4.18783 15.5396 3.57552 14.893 3.20749C14.2522 2.83313 13.5057 2.64594 12.6534 2.64594H11.031V25.0794H13.9319ZM40.8249 5.7773C40.8249 6.49431 40.5721 7.08441 40.0666 7.54761C39.561 8.00446 38.9732 8.2329 38.3031 8.2329C37.6388 8.2329 37.0481 8.00446 36.5308 7.54761C36.0135 7.08441 35.7549 6.49431 35.7549 5.7773C35.7549 5.10471 36.0135 4.53998 36.5308 4.08313C37.0481 3.61993 37.6388 3.38833 38.3031 3.38833C38.9732 3.38833 39.561 3.61993 40.0666 4.08313C40.5721 4.53998 40.8249 5.10471 40.8249 5.7773ZM47.3144 28.0299L43.2408 13.2297C43.1291 12.83 42.9792 12.4334 42.7911 12.04C42.6089 11.6403 42.4032 11.2056 42.1739 10.7361H46.9706L49.8362 21.6911L52.3227 13.2297C52.5343 12.5571 52.6401 11.837 52.6401 11.0692V10.7361H55.2236L50.2859 28.0299H47.3144ZM61.6779 28.0299C60.5963 28.0299 59.6705 27.8174 58.9005 27.3922C58.1304 26.9671 57.5044 26.3643 57.0224 25.5838C56.5345 24.8034 56.1759 23.8548 55.9466 22.738C55.7174 21.6149 55.6028 20.3713 55.6028 19.007C55.6028 17.3446 55.7409 15.9518 56.0172 14.8287C56.2935 13.712 56.7196 12.83 57.2957 12.1828C57.8718 11.5419 58.586 11.0819 59.4383 10.8027C60.2907 10.5299 61.29 10.3934 62.4362 10.3934C63.4767 10.3934 64.3819 10.5425 65.152 10.8408C65.922 11.139 66.5657 11.6244 67.083 12.297C67.6003 12.9696 67.9853 13.8579 68.2381 14.962C68.4908 16.066 68.6172 17.4144 68.6172 19.007H59.8175C59.841 20.2761 59.8968 21.377 59.985 22.3097C60.0791 23.2361 60.2642 23.9975 60.5405 24.594C60.8168 25.1904 61.2253 25.6314 61.7661 25.917C62.3069 26.2025 63.0505 26.3453 63.9969 26.3453C64.6376 26.3453 65.7192 26.2342 67.2417 26.0121L67.5856 28.0299H61.6779ZM64.332 16.7704C64.332 16.2247 64.3114 15.6726 64.2702 15.1143C64.2232 14.5559 64.1115 14.0514 63.9352 13.6009C63.7647 13.1568 63.5237 12.7919 63.2122 12.5064C62.9006 12.2208 62.4921 12.0781 61.9865 12.0781C61.2518 12.0781 60.7051 12.4873 60.3465 13.3059C59.9879 14.1244 59.8087 15.2792 59.8087 16.7704H64.332ZM70.6187 28.0299V12.8966C70.6187 12.1986 70.4689 11.4785 70.1691 10.7361H74.6571L74.7982 12.7443L76.112 11.4404C76.5235 10.9708 77.0172 10.7361 77.5933 10.7361H79.2157C79.7036 10.7361 80.0739 10.8408 80.3267 11.0502C80.5794 11.2596 80.7293 11.5007 80.7764 11.7735L78.6337 15.1714C78.4691 14.0038 77.8225 13.4201 76.6939 13.4201C76.1414 13.4201 75.6887 13.6105 75.336 13.9912C74.9775 14.3782 74.7982 14.8827 74.7982 15.5045V28.0299H70.6187Z" fill="#2C2E35"/>
<path d="M26.4348 22.1389H27.2107V18.3604H26.4348V22.1389Z" fill="white"/>
<path d="M38.5139 22.1389H39.2898V18.3604H38.5139V22.1389Z" fill="white"/>
<path d="M38.5139 48.9785H39.2898V45.1904H38.5139V48.9785Z" fill="white"/>
<path d="M39.2898 53.4434V49.6553H38.5139V53.4434H39.2898Z" fill="white"/>
<path d="M26.4348 53.4434H27.2107V49.6553H26.4348V53.4434Z" fill="white"/>
<path d="M26.4348 17.4276V17.4371C26.4348 17.6275 26.4877 17.6846 26.6641 17.6846H27.2107V13.8965H26.4348V17.4276Z" fill="white"/>
<path d="M38.5139 17.4276C38.5139 17.6274 38.5668 17.6846 38.7432 17.6846H39.2898V13.8965H38.5139V17.4276Z" fill="white"/>
<path d="M26.4348 23.0724V26.6035H27.2107V22.8154H26.6641C26.4877 22.8154 26.4348 22.8725 26.4348 23.0629V23.0724Z" fill="white"/>
<path d="M38.5139 23.0724V26.6035H39.2898V22.8154H38.7432C38.5668 22.8154 38.5139 22.8725 38.5139 23.0724Z" fill="white"/>
<path d="M26.4348 44.2684V44.2779C26.4348 44.4683 26.4877 44.5254 26.6641 44.5254H27.2107V40.7373H26.4348V44.2684Z" fill="white"/>
<path d="M26.4348 48.731V48.7405C26.4348 48.9214 26.4877 48.9785 26.6641 48.9785H27.2107V45.1904H26.4348V48.731Z" fill="white"/>
<path d="M26.4348 39.8126C26.4348 40.1838 27.2107 40.1838 27.2107 39.8126V36.272H26.4348V39.8126Z" fill="white"/>
<path d="M38.5139 39.8126C38.5139 40.1838 39.2898 40.1838 39.2898 39.8126V36.272H38.5139V39.8126Z" fill="white"/>
<path d="M38.5139 44.2684C38.5139 44.6491 39.2898 44.6491 39.2898 44.2684V40.7373H38.5139V44.2684Z" fill="white"/>
<path d="M26.4348 27.526V31.0571H27.2107V27.526C27.2107 27.1548 26.4348 27.1548 26.4348 27.526Z" fill="white"/>
<path d="M38.5139 27.526V31.0571H39.2898V27.526C39.2898 27.1548 38.5139 27.1548 38.5139 27.526Z" fill="white"/>
<path d="M38.5139 35.5208H39.2898V31.8184H38.5139V35.5208Z" fill="white"/>
<path d="M39.2949 12.5557H38.5189C38.5189 13.0506 38.3955 13.241 38.9069 13.241C39.1714 13.241 39.2684 13.1934 39.2949 13.0696V12.5557Z" fill="white"/>
<path d="M26.4348 12.8031V12.8317V12.8507V12.8698C26.4348 13.2695 26.4524 13.2219 26.9815 13.2219C27.2725 13.2219 27.2107 13.0316 27.2107 12.5557H26.6112C26.4877 12.5747 26.4348 12.6413 26.4348 12.8031Z" fill="white"/>
<path d="M26.4348 35.5208H27.2107V31.8184H26.4348V35.5208Z" fill="white"/>
</svg>
