<svg width="18" height="18" viewBox="0 0 18 18" fill="none" xmlns="http://www.w3.org/2000/svg">
<path d="M3.94861 15.8753C4.20584 15.9883 4.70775 16.3584 5.02145 16.5466C7.51218 18.0398 10.7181 17.9081 13.2214 16.5404L14.2629 15.7938L13.5163 15.0346C13.2653 15.135 12.9265 15.4362 12.6254 15.5993C10.4797 16.7788 7.81333 16.8227 5.66138 15.6244C5.33514 15.4424 4.99635 15.1852 4.73912 15.0597L3.94861 15.8753Z" fill="#FFCE28" stroke="#2C2E35" stroke-width="0.01"/>
<path d="M6.18107 13.5976L5.44702 14.3568C5.95521 15.0344 7.98167 15.5739 9.12352 15.5676C10.51 15.5676 11.997 15.0344 12.8063 14.3756L12.0283 13.56C10.623 14.3944 9.23645 14.7709 7.49858 14.1999C6.9653 14.0306 6.56377 13.7294 6.18107 13.5976Z" fill="#FFCE28" stroke="#2C2E35" stroke-width="0.01"/>
<path d="M8.64661 8.78572C6.82718 9.41311 7.69298 12.0481 9.50613 11.5274C10.1523 11.3455 10.7044 10.5989 10.4598 9.73307C10.2715 9.09313 9.50613 8.49085 8.64661 8.78572Z" fill="#FFCE28" stroke="#2C2E35" stroke-width="0.01"/>
<path d="M6.80139 12.9828C7.58563 13.8047 10.0952 13.9427 11.4315 13.0016L10.641 12.186C9.41133 12.7507 8.79022 12.6315 7.56681 12.1923L6.80139 12.9828Z" fill="#FFCE28" stroke="#2C2E35" stroke-width="0.01"/>
<path d="M14.9439 7.16077C14.1095 7.28624 12.9363 7.09804 12.0767 7.01648C9.98127 6.82199 7.99872 6.84708 5.91578 7.02274C5.39505 7.07294 4.63591 7.16705 3.9646 7.19842L2.63454 7.51211C2.25811 7.60622 1.58052 7.84463 1.19782 7.68778C0.683357 9.92756 1.18527 12.3367 2.55298 14.2377C2.77884 14.5451 3.03607 14.7898 3.21174 15.0784C3.49406 14.9467 3.95206 14.4448 4.1089 14.2315C3.77011 13.8989 2.13263 11.9289 2.8353 11.0819C3.47524 10.304 5.50798 11.22 6.25458 12.0481L7.12664 11.2137C7.05136 10.8686 6.83177 10.624 6.81295 10.1158C6.79413 9.66405 6.89451 9.31271 7.089 8.96765C7.91088 7.50583 9.98754 7.56231 10.7843 8.87982C11.2925 9.71425 11.1294 10.3354 10.7969 11.151L11.7129 12.0732C13.6201 10.0154 17.3907 10.2726 13.8836 14.2315C14.0091 14.3695 14.1409 14.4824 14.2726 14.633C14.3981 14.771 14.5361 14.9655 14.6239 15.0847C14.8498 15.0157 14.8059 15.0847 15.0506 14.7396C15.4082 14.2252 15.5023 14.2754 15.9791 13.4033C17.0394 11.4835 17.2778 9.27508 16.6755 7.21724C16.343 7.46192 15.8474 7.33017 15.4772 7.26116L14.9439 7.16077Z" fill="#2C2E35" stroke="#2C2E35" stroke-width="0.01"/>
<path d="M1.4918 7.38116C1.6361 7.47526 2.43289 7.23687 2.6462 7.18668L4.95499 6.63457C6.20977 6.37107 5.60748 5.70603 5.78942 4.65202C5.92117 3.86778 7.64022 3.79878 8.23624 3.70467L9.07694 3.6733C9.87373 3.67957 10.5952 3.68584 11.4108 3.93052C12.0257 4.11246 12.0947 4.42617 12.1072 4.88416C12.1449 6.15776 12.0194 6.27069 13.3746 6.49655L15.6833 6.92317C16.6119 7.10512 16.9695 7.18667 16.1602 5.48645C15.1689 3.39724 13.2114 1.79113 10.9905 1.23903C9.91137 0.975526 8.58757 0.906519 7.48964 1.1512C5.1934 1.65939 3.30496 2.95808 2.12547 5.07238C1.93725 5.41744 1.07773 7.11765 1.4918 7.38116Z" fill="#FFCE28" stroke="#2C2E35" stroke-width="0.01"/>
</svg>
