<svg width="52" height="52" viewBox="0 0 52 52" fill="none" xmlns="http://www.w3.org/2000/svg">
<path d="M10.2146 45.7592C11.0184 46.099 12.5869 47.2128 13.5672 47.7791C21.3508 52.2721 31.3694 51.8757 39.1921 47.7602L42.4467 45.5138L40.1136 43.2295C39.3294 43.5315 38.2707 44.4377 37.3296 44.9285C30.6244 48.4776 22.2918 48.6098 15.567 45.0041C14.5475 44.4566 13.4888 43.6826 12.685 43.305L10.2146 45.7592Z" fill="#FFCE28" stroke="black" stroke-width="0.2"/>
<path d="M17.1916 38.9058L14.8977 41.19C16.4858 43.2289 22.8185 44.8523 26.3868 44.8335C30.7197 44.8335 35.3663 43.2288 37.8954 41.2466L35.4643 38.7925C31.0726 41.3033 26.7397 42.436 21.3088 40.7181C19.6423 40.2084 18.3876 39.3022 17.1916 38.9058Z" fill="#FFCE28" stroke="black" stroke-width="0.2"/>
<path d="M24.895 24.4291C19.2093 26.3169 21.9149 34.2457 27.581 32.6788C29.6004 32.1313 31.3257 29.8848 30.5611 27.2796C29.9729 25.3541 27.581 23.5418 24.895 24.4291Z" fill="#FFCE28" stroke="black" stroke-width="0.2"/>
<path d="M19.1288 37.0572C21.5795 39.5302 29.4219 39.9455 33.598 37.1138L31.1276 34.6597C27.2848 36.3587 25.3439 36 21.5207 34.6786L19.1288 37.0572Z" fill="#FFCE28" stroke="black" stroke-width="0.2"/>
<path d="M44.5747 19.5385C41.9672 19.916 38.3008 19.3497 35.6148 19.1043C29.0665 18.5191 22.871 18.5946 16.3618 19.1232C14.7345 19.2742 12.3622 19.5574 10.2644 19.6518L6.10793 20.5957C4.93158 20.8788 2.81414 21.5962 1.61817 21.1243C0.0104895 27.8637 1.57897 35.1129 5.85306 40.833C6.55887 41.758 7.36271 42.4943 7.91168 43.3627C8.79395 42.9662 10.2252 41.456 10.7153 40.8141C9.6566 39.8136 4.53946 33.8858 6.73533 31.3373C8.73513 28.9964 15.0874 31.7526 17.4205 34.2445L20.1458 31.7337C19.9105 30.6954 19.2243 29.9592 19.1655 28.4301C19.1066 27.0709 19.4203 26.0137 20.0281 24.9754C22.5965 20.5768 29.0861 20.7467 31.576 24.7111C33.1641 27.2219 32.6543 29.0908 31.6152 31.545L34.4777 34.32C40.4379 28.128 52.221 28.902 41.2613 40.8141C41.6535 41.2294 42.0652 41.5692 42.4769 42.0223C42.869 42.4376 43.3003 43.0228 43.5748 43.3815C44.2806 43.1739 44.1434 43.3815 44.908 42.3432C46.0256 40.7952 46.3197 40.9462 47.8097 38.3222C51.1231 32.5455 51.8681 25.9004 49.986 19.7084C48.9469 20.4446 47.398 20.0482 46.2412 19.8405L44.5747 19.5385Z" fill="#2C2E35" stroke="black" stroke-width="0.2"/>
<path d="M2.53585 20.2007C2.98679 20.4839 5.47674 19.7665 6.14334 19.6155L13.3583 17.9542C17.2795 17.1613 15.3973 15.1602 15.9659 11.9887C16.3776 9.62896 21.7497 9.42133 23.6122 9.13816L26.2394 9.04377C28.7294 9.06264 30.984 9.0815 33.5328 9.81774C35.4542 10.3652 35.6699 11.3091 35.7091 12.6872C35.8267 16.5195 35.4346 16.8593 39.6695 17.5389L46.8844 18.8226C49.7861 19.3701 50.9036 19.6155 48.3745 14.4995C45.2767 8.21311 39.1597 3.38033 32.2192 1.71905C28.847 0.926173 24.7101 0.718532 21.2791 1.45478C14.1033 2.9839 8.20196 6.89167 4.51604 13.2536C3.92787 14.2919 1.24186 19.4078 2.53585 20.2007Z" fill="#FFCE28" stroke="black" stroke-width="0.2"/>
</svg>
